<?xml version="1.0" encoding="UTF-8" standalone="no"?>
<svg
   width="600"
   height="600"
   viewBox="0 0 600 600"
   version="1.1"
   id="svg36"
   sodipodi:docname="content_76daec5c-7fc8-40de-b0a6-8bbe3ee567ac-0.svg"
   inkscape:version="1.4.2 (ebf0e940d0, 2025-05-08)"
   xmlns:inkscape="http://www.inkscape.org/namespaces/inkscape"
   xmlns:sodipodi="http://sodipodi.sourceforge.net/DTD/sodipodi-0.dtd"
   xmlns="http://www.w3.org/2000/svg"
   xmlns:svg="http://www.w3.org/2000/svg">
  <sodipodi:namedview
     id="namedview36"
     pagecolor="#ffffff"
     bordercolor="#000000"
     borderopacity="0.25"
     inkscape:showpageshadow="2"
     inkscape:pageopacity="0.0"
     inkscape:pagecheckerboard="0"
     inkscape:deskcolor="#d1d1d1"
     inkscape:zoom="1.1073432"
     inkscape:cx="144.48998"
     inkscape:cy="307.0412"
     inkscape:window-width="1920"
     inkscape:window-height="1011"
     inkscape:window-x="0"
     inkscape:window-y="0"
     inkscape:window-maximized="1"
     inkscape:current-layer="svg36" />
  <!-- Define text styling for consistency -->
  <defs
     id="defs1">
    <style
       id="style1">
      .digit-text {
        font-family: 'Arial', sans-serif;
        font-size: 36px;
        font-weight: bold;
        text-anchor: middle;
        dominant-baseline: central;
      }
      .digit-light { fill: black; } /* For white and yellow backgrounds */
      .digit-dark { fill: white; }  /* For green backgrounds */
    </style>
  </defs>
  <!-- Row 1 (all white) -->
  <rect
     width="90"
     height="90"
     x="5"
     y="5"
     rx="8"
     ry="8"
     fill="white"
     stroke="black"
     stroke-width="2"
     id="rect1" />
  <text
     x="50"
     y="50"
     class="digit-text digit-light"
     id="text1">3</text>
  <rect
     width="90"
     height="90"
     x="105"
     y="5"
     rx="8"
     ry="8"
     fill="white"
     stroke="black"
     stroke-width="2"
     id="rect2" />
  <text
     x="150"
     y="50"
     class="digit-text digit-light"
     id="text2">1</text>
  <rect
     width="90"
     height="90"
     x="205"
     y="5"
     rx="8"
     ry="8"
     fill="white"
     stroke="black"
     stroke-width="2"
     id="rect3" />
  <text
     x="250"
     y="50"
     class="digit-text digit-light"
     id="text3">4</text>
  <rect
     width="90"
     height="90"
     x="305"
     y="5"
     rx="8"
     ry="8"
     fill="white"
     stroke="black"
     stroke-width="2"
     id="rect4" />
  <text
     x="350"
     y="50"
     class="digit-text digit-light"
     id="text4">1</text>
  <rect
     width="90"
     height="90"
     x="405"
     y="5"
     rx="8"
     ry="8"
     fill="white"
     stroke="black"
     stroke-width="2"
     id="rect5" />
  <text
     x="450"
     y="50"
     class="digit-text digit-light"
     id="text5">5</text>
  <rect
     width="90"
     height="90"
     x="505"
     y="5"
     rx="8"
     ry="8"
     fill="white"
     stroke="black"
     stroke-width="2"
     id="rect6" />
  <text
     x="550"
     y="50"
     class="digit-text digit-light"
     id="text6">9</text>
  <!-- Row 2 (white, yellow, green, white, yellow, green) -->
  <rect
     width="90"
     height="90"
     x="5"
     y="105"
     rx="8"
     ry="8"
     fill="white"
     stroke="black"
     stroke-width="2"
     id="rect7" />
  <text
     x="50"
     y="150"
     class="digit-text digit-light"
     id="text7">2</text>
  <rect
     width="90"
     height="90"
     x="105"
     y="105"
     rx="8"
     ry="8"
     fill="#c9b458"
     stroke="black"
     stroke-width="2"
     id="rect8" />
  <text
     x="150"
     y="150"
     class="digit-text digit-light"
     id="text8">6</text>
  <rect
     width="90"
     height="90"
     x="205"
     y="105"
     rx="8"
     ry="8"
     fill="#538d4e"
     stroke="black"
     stroke-width="2"
     id="rect9" />
  <text
     x="250"
     y="150"
     class="digit-text digit-dark"
     id="text9">5</text>
  <rect
     width="90"
     height="90"
     x="305"
     y="105"
     rx="8"
     ry="8"
     fill="white"
     stroke="black"
     stroke-width="2"
     id="rect10" />
  <text
     x="350"
     y="150"
     class="digit-text digit-light"
     id="text10">3</text>
  <rect
     width="90"
     height="90"
     x="405"
     y="105"
     rx="8"
     ry="8"
     fill="#c9b458"
     stroke="black"
     stroke-width="2"
     id="rect11" />
  <text
     x="450"
     y="150"
     class="digit-text digit-light"
     id="text11">5</text>
  <rect
     width="90"
     height="90"
     x="505"
     y="105"
     rx="8"
     ry="8"
     fill="#538d4e"
     stroke="black"
     stroke-width="2"
     id="rect12" />
  <text
     x="550"
     y="150"
     class="digit-text digit-dark"
     id="text12">8</text>
  <!-- Row 3 (green, green, white, yellow, yellow, green) -->
  <rect
     width="90"
     height="90"
     x="5"
     y="205"
     rx="8"
     ry="8"
     fill="#538d4e"
     stroke="black"
     stroke-width="2"
     id="rect13" />
  <text
     x="50"
     y="250"
     class="digit-text digit-dark"
     id="text13">9</text>
  <rect
     width="90"
     height="90"
     x="105"
     y="205"
     rx="8"
     ry="8"
     fill="#538d4e"
     stroke="black"
     stroke-width="2"
     id="rect14" />
  <text
     x="150"
     y="250"
     class="digit-text digit-dark"
     id="text14">7</text>
  <rect
     width="90"
     height="90"
     x="205"
     y="205"
     rx="8"
     ry="8"
     fill="white"
     stroke="black"
     stroke-width="2"
     id="rect15" />
  <text
     x="250"
     y="250"
     class="digit-text digit-light"
     id="text15">9</text>
  <rect
     width="90"
     height="90"
     x="305"
     y="205"
     rx="8"
     ry="8"
     fill="#c9b458"
     stroke="black"
     stroke-width="2"
     id="rect16" />
  <text
     x="350"
     y="250"
     class="digit-text digit-light"
     id="text16">3</text>
  <rect
     width="90"
     height="90"
     x="405"
     y="205"
     rx="8"
     ry="8"
     fill="#c9b458"
     stroke="black"
     stroke-width="2"
     id="rect17" />
  <text
     x="450"
     y="250"
     class="digit-text digit-light"
     id="text17">2</text>
  <rect
     width="90"
     height="90"
     x="505"
     y="205"
     rx="8"
     ry="8"
     fill="#538d4e"
     stroke="black"
     stroke-width="2"
     id="rect18" />
  <text
     x="550"
     y="250"
     class="digit-text digit-dark"
     id="text18">3</text>
  <!-- Row 4 (white, yellow, green, green, white, yellow) -->
  <rect
     width="90"
     height="90"
     x="5"
     y="305"
     rx="8"
     ry="8"
     fill="white"
     stroke="black"
     stroke-width="2"
     id="rect19" />
  <text
     x="50"
     y="350"
     class="digit-text digit-light"
     id="text19">8</text>
  <rect
     width="90"
     height="90"
     x="105"
     y="305"
     rx="8"
     ry="8"
     fill="#c9b458"
     stroke="black"
     stroke-width="2"
     id="rect20" />
  <text
     x="150"
     y="350"
     class="digit-text digit-light"
     id="text20">4</text>
  <rect
     width="90"
     height="90"
     x="205"
     y="305"
     rx="8"
     ry="8"
     fill="#538d4e"
     stroke="black"
     stroke-width="2"
     id="rect21" />
  <text
     x="250"
     y="350"
     class="digit-text digit-dark"
     id="text21">6</text>
  <rect
     width="90"
     height="90"
     x="305"
     y="305"
     rx="8"
     ry="8"
     fill="#538d4e"
     stroke="black"
     stroke-width="2"
     id="rect22" />
  <text
     x="350"
     y="350"
     class="digit-text digit-dark"
     id="text22">2</text>
  <rect
     width="90"
     height="90"
     x="405"
     y="305"
     rx="8"
     ry="8"
     fill="white"
     stroke="black"
     stroke-width="2"
     id="rect23" />
  <text
     x="450"
     y="350"
     class="digit-text digit-light"
     id="text23">6</text>
  <rect
     width="90"
     height="90"
     x="505"
     y="305"
     rx="8"
     ry="8"
     fill="#c9b458"
     stroke="black"
     stroke-width="2"
     id="rect24" />
  <text
     x="550"
     y="350"
     class="digit-text digit-light"
     id="text24">4</text>
  <!-- Row 5 (green, green, green, white, yellow, green) -->
  <rect
     width="90"
     height="90"
     x="5"
     y="405"
     rx="8"
     ry="8"
     fill="#538d4e"
     stroke="black"
     stroke-width="2"
     id="rect25" />
  <text
     x="50"
     y="450"
     class="digit-text digit-dark"
     id="text25">3</text>
  <rect
     width="90"
     height="90"
     x="105"
     y="405"
     rx="8"
     ry="8"
     fill="#538d4e"
     stroke="black"
     stroke-width="2"
     id="rect26" />
  <text
     x="150"
     y="450"
     class="digit-text digit-dark"
     id="text26">3</text>
  <rect
     width="90"
     height="90"
     x="205"
     y="405"
     rx="8"
     ry="8"
     fill="#538d4e"
     stroke="black"
     stroke-width="2"
     id="rect27" />
  <text
     x="250"
     y="450"
     class="digit-text digit-dark"
     id="text27">8</text>
  <rect
     width="90"
     height="90"
     x="305"
     y="405"
     rx="8"
     ry="8"
     fill="white"
     stroke="black"
     stroke-width="2"
     id="rect28" />
  <text
     x="350"
     y="450"
     class="digit-text digit-light"
     id="text28">3</text>
  <rect
     width="90"
     height="90"
     x="405"
     y="405"
     rx="8"
     ry="8"
     fill="#c9b458"
     stroke="black"
     stroke-width="2"
     id="rect29" />
  <text
     x="450"
     y="450"
     class="digit-text digit-light"
     id="text29">2</text>
  <rect
     width="90"
     height="90"
     x="505"
     y="405"
     rx="8"
     ry="8"
     fill="#538d4e"
     stroke="black"
     stroke-width="2"
     id="rect30" />
  <text
     x="550"
     y="450"
     class="digit-text digit-dark"
     id="text30">7</text>
  <!-- Row 6 (all green) -->
  <rect
     width="90"
     height="90"
     x="5"
     y="505"
     rx="8"
     ry="8"
     fill="#538d4e"
     stroke="black"
     stroke-width="2"
     id="rect31" />
  <text
     x="50"
     y="550"
     class="digit-text digit-dark"
     id="text31">9</text>
  <rect
     width="90"
     height="90"
     x="105"
     y="505"
     rx="8"
     ry="8"
     fill="#538d4e"
     stroke="black"
     stroke-width="2"
     id="rect32" />
  <text
     x="150"
     y="550"
     class="digit-text digit-dark"
     id="text32">5</text>
  <rect
     width="90"
     height="90"
     x="205"
     y="505"
     rx="8"
     ry="8"
     fill="#538d4e"
     stroke="black"
     stroke-width="2"
     id="rect33" />
  <text
     x="250"
     y="550"
     class="digit-text digit-dark"
     id="text33">0</text>
  <rect
     width="90"
     height="90"
     x="305"
     y="505"
     rx="8"
     ry="8"
     fill="#538d4e"
     stroke="black"
     stroke-width="2"
     id="rect34" />
  <text
     x="350"
     y="550"
     class="digit-text digit-dark"
     id="text34">2</text>
  <rect
     width="90"
     height="90"
     x="405"
     y="505"
     rx="8"
     ry="8"
     fill="#538d4e"
     stroke="black"
     stroke-width="2"
     id="rect35" />
  <text
     x="450"
     y="550"
     class="digit-text digit-dark"
     id="text35">8</text>
  <rect
     width="90"
     height="90"
     x="505"
     y="505"
     rx="8"
     ry="8"
     fill="#538d4e"
     stroke="black"
     stroke-width="2"
     id="rect36" />
  <text
     x="550"
     y="550"
     class="digit-text digit-dark"
     id="text36">8</text>
</svg>
